<svg height="303.302139" viewBox="0 0 298.01 273.895" width="329.704236" xmlns="http://www.w3.org/2000/svg"><path d="m177.709 531.9h256.582a20.714 20.714 0 0 1 20.714-20.714v-253.186h-55v14.9h-12.936l-10.069-13.858h-142l-10.069 13.858h-12.939v-14.9h-54.992v253.18a20.714 20.714 0 0 1 20.709 20.72z" fill="#fdfd7d" transform="translate(-156.995 -258)"/><path d="m407.628 264.477h40v16.358h-40z" fill="#ce3c3c" transform="matrix(-1 0 0 -1 698.26 287.312)"/><path d="m290.487 29.798h-40v174.579l40 40.073z" fill="#38528e"/><path d="m389.317 484.362h55v15h-55z" fill="#ce3c3c" transform="matrix(-.70710678 -.70710678 .70710678 -.70710678 206.757 876.395)"/><path d="m55.013 22.835h188v78h-188z" fill="#38528e"/><path d="m7.523 6.477h40v16.358h-40z" fill="#ce3c3c"/><path d="m7.523 29.798h40v174.579l-40 40.073z" fill="#38528e"/><path d="m167.683 484.362h55v15h-55z" fill="#ce3c3c" transform="matrix(.70710678 -.70710678 .70710678 .70710678 -447.626 24.078)"/><path d="m231.404 224.715h-164.798l-39.083 41.469h242.964z" fill="#38528e"/><path d="m212.367 9.028h-126.724l-5.507 7.82h137.738z" fill="#ce3c3c"/><path d="m54.997 108.472v91.694l22.13 19.554h143.739l22.124-19.554v-91.694z" fill="#38528e"/><path d="m55.787 109.618v76.229l21.944 33.227h142.53l21.938-33.227v-76.229z" fill="#fdfd7d"/><path d="m267.787 424.851c0 5.566-11.382 15.879-25.423 15.879s-25.424-10.313-25.424-15.879" fill="#ce3c3c" transform="translate(-156.995 -258)"/><path d="m83.687 127.88-23.742 38.971 1.676 1.016 23.773-38.945z" fill="#ce3c3c"/><path d="m216.369 408.449h45.78v2h-45.78z" fill="#ce3c3c" transform="matrix(.16602872 -.98612092 .98612092 .16602872 -361.227 319.405)"/><path d="m110.792 166.851-22.305-38.372-1.728 1.006 22.34 38.394z" fill="#ce3c3c"/><path d="m223.847 126.192-70.892-5.204v-7.777h10.911v-2.469h-29.864v2.469h10.911v7.777l-70.893 5.204v3.917l70.893 7.03-4.868 63.023h-34.076v8.784h-28.032v10.128h141.993v-10.128h-28.032v-8.784h-34.075l-4.868-63.023 70.892-7.03z" fill="#ce3c3c"/><path d="m344.166 424.039c0 5.566 11.382 15.879 25.423 15.879s25.423-10.313 25.423-15.879" fill="#ce3c3c" transform="translate(-156.995 -258)"/><path d="m236.342 167.055-23.845-38.133 1.707-1.042 23.813 38.159z" fill="#ce3c3c"/><path d="m371.693 385.747h2v45.78h-2z" fill="#ce3c3c" transform="matrix(.986 -.166 .166 .986 -219.652 -190.471)"/><path d="m209.404 128.479-22.233 37.56 1.693 1.027 22.269-37.581z" fill="#ce3c3c"/><g fill="#fdfd7d" transform="translate(-156.995 -258)"><path d="m349.591 335.428c-6.586-1.291-13.4-2.626-17.638-3.066-4.473-.466-10.646-.674-13.318.266-1.7.6-5.386 3.338-7.866 5.293 9.987 1.425 49.881 7.262 63.717 11.473 1.743.528 5.65-5 8.573-10.932-3.6.08-12.256.208-17.513-.266-3.416-.309-9.507-1.503-15.955-2.768z"/><path d="m356.02 308.96c-1.732-.089-8.62-.479-11.152-1.136-3.273-.85-7.882-2.956-12.339-4.993-3.578-1.636-6.958-3.18-9.431-3.987-8.646-2.822-13.786.34-15.1 1.319v34.99c2.559-1.934 7.534-5.45 10.7-6.111 5.656-1.179 16.978.1 21.574.912 2.157.378 5.086 1.013 8.187 1.686 5.223 1.132 11.143 2.416 14.791 2.776 3.811.375 13.771.206 18.323.1z"/><path d="m280.029 332.362c-4.241.44-11.051 1.775-17.637 3.066-6.449 1.265-12.539 2.459-15.955 2.768-5.257.474-13.914.347-17.513.266 2.924 5.93 6.836 11.461 8.573 10.932 13.835-4.211 53.73-10.048 63.717-11.473-2.481-1.956-6.172-4.7-7.866-5.293-2.671-.938-8.843-.728-13.319-.266z"/><path d="m271.722 329.954a102.859 102.859 0 0 1 15.541-1.389 31.034 31.034 0 0 1 6.033.477c3.17.661 8.145 4.177 10.7 6.111v-34.99c-1.306-.977-6.447-4.142-15.1-1.319-2.472.806-5.852 2.351-9.429 3.986-4.457 2.037-9.066 4.144-12.34 4.994-2.533.657-9.42 1.047-11.152 1.136l-25.558 25.559c4.55.1 14.509.272 18.322-.1 3.648-.36 9.569-1.644 14.793-2.777 3.105-.675 6.034-1.31 8.19-1.688z"/><path d="m413.25 456.279c0-4.279 2.56-6.478 7.039-6.478h.88v4.158h-1.16c-2 0-2.76.8-2.76 2.2s.76 2.2 2.76 2.2c2.04 0 3.559-.88 6.079-3.759 3.239-3.68 5.558-4.84 8.759-4.84 4.478 0 7.038 2.24 7.038 6.559s-2.56 6.559-7.038 6.559h-1.72v-4.159h2c2 0 2.72-.88 2.72-2.28s-.72-2.279-2.72-2.279c-2.039 0-3.56.879-6.079 3.759-3.239 3.679-5.559 4.839-8.758 4.839-4.48 0-7.04-2.199-7.04-6.479z"/><path d="m425.368 439.879v-6.039h4v6.039h8.2v-7.6h4v12h-28v-12h4v7.6z"/><path d="m431.127 413.841h3.72c4.478 0 7.038 2.239 7.038 6.558s-2.56 6.56-7.038 6.56h-14.558c-4.479 0-7.039-2.24-7.039-6.56s2.56-6.558 7.039-6.558h2.72v4.159h-3c-2 0-2.76.88-2.76 2.279s.76 2.28 2.76 2.28h15.117c2 0 2.72-.879 2.72-2.28s-.72-2.279-2.72-2.279h-4z"/><path d="m420.289 408.559c-4.479 0-7.039-2.36-7.039-6.678s2.56-6.68 7.039-6.68h14.558c4.478 0 7.038 2.36 7.038 6.68s-2.56 6.678-7.038 6.678zm14.837-4.4c2 0 2.76-.881 2.76-2.279s-.76-2.28-2.76-2.28h-15.117c-2 0-2.76.879-2.76 2.28s.76 2.279 2.76 2.279z"/><path d="m421.289 385.4v.08h20.276v3.959h-28v-5.519l16.757-4.439v-.08h-16.752v-3.92h28v4.519z"/><path d="m413.57 369.36v-6.96c0-4.4 2.44-6.559 6.918-6.559h14.158c4.48 0 6.919 2.159 6.919 6.559v6.959zm4-4.4h20v-2.479c0-1.4-.719-2.24-2.718-2.24h-14.563c-2 0-2.72.84-2.72 2.24z"/><path d="m441.565 335.882v4.44l-5.079.76v5.4l5.079.76v4.04l-28-4.479v-6.439zm-8.878 10.039v-4.239l-14.158 2.079v.08z"/><path d="m441.565 321.681a8.6 8.6 0 0 1 -3.439.4h-4.4c-2.6 0-3.56.88-3.56 2.88v1.519h11.4v4.4h-28v-6.639c0-4.559 2.119-6.519 6.439-6.519h2.2c2.88 0 4.72.92 5.64 2.88h.08c.92-2.2 3-2.92 5.919-2.92h4.319a8.244 8.244 0 0 0 3.4-.48zm-24 4.8h8.6v-1.719c0-1.64-.72-2.64-2.96-2.64h-2.759c-2 0-2.88.68-2.88 2.24z"/><path d="m432.287 308.121-18.717 5.559v-4.6l12.758-3.32v-.08l-12.758-3.319v-4.2l18.717 5.559h9.278v4.4z"/><path d="m190.989 302.239v-.08h-20.276v-3.959h28v5.519l-16.757 4.44v.08h16.757v3.919h-28v-4.519z"/><path d="m191.989 320.6c4.48 0 7.039 2.359 7.039 6.678s-2.559 6.68-7.039 6.68h-14.557c-4.479 0-7.039-2.36-7.039-6.68s2.56-6.678 7.039-6.678zm-14.837 4.4c-2 0-2.76.88-2.76 2.279s.76 2.28 2.76 2.28h15.117c2 0 2.76-.88 2.76-2.28s-.76-2.279-2.76-2.279z"/><path d="m170.713 351.637a8.608 8.608 0 0 1 3.439-.4h4.4c2.6 0 3.559-.88 3.559-2.88v-1.519h-11.4v-4.4h28v6.64c0 4.559-2.12 6.518-6.439 6.518h-2.2c-2.88 0-4.719-.919-5.639-2.879h-.08c-.92 2.2-3 2.919-5.919 2.919h-4.32a8.241 8.241 0 0 0 -3.4.48zm24-4.8h-8.6v1.72c0 1.639.72 2.639 2.96 2.639h2.759c2 0 2.88-.68 2.88-2.239z"/><path d="m198.708 362.878v13.6h-4v-4.6h-24v-4.4h24v-4.6z"/><path d="m170.713 388.437v-4.4h28v4.4h-12v5h12v4.479h-28v-4.479h12v-5z"/><path d="m186.91 411.156v6.044h-4v-6.039h-8.2v7.6h-4v-12h28v12h-4v-7.6z"/><path d="m170.713 436.315a8.616 8.616 0 0 1 3.439-.4h4.4c2.6 0 3.559-.88 3.559-2.88v-1.519h-11.4v-4.4h28v6.639c0 4.559-2.12 6.518-6.439 6.518h-2.2c-2.88 0-4.719-.919-5.639-2.878h-.08c-.92 2.2-3 2.918-5.919 2.918h-4.32a8.224 8.224 0 0 0 -3.4.481zm24-4.8h-8.6v1.719c0 1.64.72 2.64 2.96 2.64h2.759c2 0 2.88-.681 2.88-2.24z"/><path d="m190.989 452.836v-.08h-20.276v-3.956h28v5.518l-16.757 4.44v.08h16.757v3.92h-28v-4.52z"/><path d="m247.1 489.667c4.279 0 6.479 2.56 6.479 7.039v.88h-4.16v-1.16c0-2-.8-2.76-2.2-2.76s-2.2.761-2.2 2.76c0 2.04.88 3.559 3.759 6.079 3.68 3.239 4.84 5.559 4.84 8.759 0 4.479-2.24 7.039-6.559 7.039s-6.559-2.56-6.559-7.039v-1.72h4.159v2c0 2 .88 2.719 2.28 2.719s2.279-.72 2.279-2.719c0-2.04-.88-3.56-3.759-6.079-3.679-3.24-4.839-5.56-4.839-8.759.002-4.479 2.201-7.039 6.48-7.039z"/><path d="m276.9 507.544v3.72c0 4.479-2.239 7.039-6.558 7.039s-6.559-2.56-6.559-7.039v-14.558c0-4.479 2.239-7.039 6.559-7.039s6.558 2.56 6.558 7.039v2.72h-4.16v-3c0-2-.88-2.76-2.28-2.76s-2.279.761-2.279 2.76v15.118c0 2 .88 2.719 2.279 2.719s2.28-.72 2.28-2.719v-4z"/><path d="m291.98 517.982h-4.4v-27.995h4.4v12h5v-12h4.48v27.995h-4.48v-12h-5z"/><path d="m312.3 496.706c0-4.479 2.36-7.039 6.679-7.039s6.679 2.56 6.679 7.039v14.558c0 4.479-2.36 7.039-6.679 7.039s-6.679-2.56-6.679-7.039zm4.4 14.838c0 2 .88 2.759 2.28 2.759s2.28-.76 2.28-2.759v-15.118c0-2-.88-2.76-2.28-2.76s-2.28.761-2.28 2.76z"/><path d="m336.14 496.706c0-4.479 2.36-7.039 6.678-7.039s6.68 2.56 6.68 7.039v14.558c0 4.479-2.36 7.039-6.68 7.039s-6.678-2.56-6.678-7.039zm4.4 14.838c0 2 .88 2.759 2.279 2.759s2.281-.76 2.281-2.759v-15.118c0-2-.88-2.76-2.281-2.76s-2.279.761-2.279 2.76z"/><path d="m360.34 489.987h4.4v24h7.239v4h-11.639z"/></g></svg>